<svg xmlns="http://www.w3.org/2000/svg" width="149" height="168" fill="none"><path fill="#020202" d="M135.77 44.196c-4.448.703-8.824 1.449-13.188 2.008-6.516.953-13.264 1.974-19.788 2.441a2.92 2.92 0 0 1-3.72-2.643 2.9 2.9 0 0 1 .417-1.67 3 3 0 0 1 1.77-1.383c36.951-9.65 30.485-8.284 35.104-8.118a4.2 4.2 0 0 1-.866-.5 40.5 40.5 0 0 0-17.104-9.876 94.3 94.3 0 0 0-20.306-2.678 100 100 0 0 0-33.995 5.199 75 75 0 0 0-29.272 17.366 76.83 76.83 0 0 0-26.04 59.27 79.16 79.16 0 0 0 29.444 58.684 2.942 2.942 0 0 1-3.494 4.719A85.66 85.66 0 0 1 .086 103.99a85.17 85.17 0 0 1 27.846-66.898 83.3 83.3 0 0 1 33.38-18.65 105 105 0 0 1 37.399-3.908 85 85 0 0 1 25.821 5.276 43.8 43.8 0 0 1 10.688 6.17c-.477-2.007-.912-4.086-1.502-6.063-2.976-9.513-8.061-14.373-7.988-16.832a2.68 2.68 0 0 1 .531-1.98 2.66 2.66 0 0 1 1.777-1.018 3.08 3.08 0 0 1 2.901.809 59 59 0 0 1 6.965 9.602 63 63 0 0 1 4.467 8.93c1.279 2.952 2.33 5.964 3.443 9.205a47 47 0 0 1 1.93 5.156 9.1 9.1 0 0 1 .157 4.228 5.66 5.66 0 0 1-2.975 4.152 45.6 45.6 0 0 1-9.156 2.027"/></svg>